<svg xmlns="http://www.w3.org/2000/svg" width="640" height="180" viewBox="0 0 640 180" role="img" aria-labelledby="title desc">
  <title id="title">独狼制剂处方筛选综合工具 Logo</title>
  <desc id="desc">A compact green and blue mark for Dulang formulation screening tool.</desc>
  <defs>
    <linearGradient id="markGradient" x1="0" y1="0" x2="1" y2="1">
      <stop offset="0" stop-color="#0f766e"/>
      <stop offset="1" stop-color="#2563eb"/>
    </linearGradient>
    <filter id="shadow" x="-20%" y="-20%" width="140%" height="140%">
      <feDropShadow dx="0" dy="10" stdDeviation="14" flood-color="#0f172a" flood-opacity=".16"/>
    </filter>
  </defs>

  <rect width="640" height="180" rx="28" fill="#f8fafc"/>
  <rect x="16" y="16" width="608" height="148" rx="24" fill="#ffffff" stroke="#dbe3ef"/>

  <g transform="translate(44 32)" filter="url(#shadow)">
    <rect width="116" height="116" rx="28" fill="url(#markGradient)"/>
    <path d="M33 81c13-24 22-41 29-61 4 19 14 34 28 48-8-1-16 1-23 6-10 7-20 9-34 7Z" fill="#ffffff" opacity=".96"/>
    <path d="M49 88c18-12 34-16 51-12-12 15-30 24-51 24-10 0-19-2-27-6 9 0 18-2 27-6Z" fill="#dffcf7"/>
    <circle cx="80" cy="51" r="5" fill="#0f172a"/>
    <path d="M88 34l16-9-6 19Z" fill="#dffcf7"/>
  </g>

  <g transform="translate(188 49)">
    <text x="0" y="44" font-family="'Microsoft YaHei', 'PingFang SC', Arial, sans-serif" font-size="42" font-weight="800" fill="#0f172a">独狼制剂</text>
    <text x="0" y="82" font-family="'Microsoft YaHei', 'PingFang SC', Arial, sans-serif" font-size="24" font-weight="600" fill="#2563eb">处方筛选综合工具</text>
    <text x="0" y="113" font-family="Arial, sans-serif" font-size="16" letter-spacing="2" fill="#64748b">FORMULATION DEVELOPMENT WORKSPACE</text>
  </g>
</svg>
